HIERARCHY
ROOT Hips
{
 OFFSET 0.000000 0.000000 0.000000
 CHANNELS 6 Xposition Yposition Zposition Yrotation Xrotation Zrotation
 JOINT Chest
 {
  OFFSET 0.000000 9.585900 0.002600
  CHANNELS 3 Yrotation Xrotation Zrotation
  JOINT Chest2
  {
   OFFSET 0.000000 9.601200 -0.005300
   CHANNELS 3 Yrotation Xrotation Zrotation
   JOINT Chest3
   {
    OFFSET 0.000000 9.561800 0.000000
    CHANNELS 3 Yrotation Xrotation Zrotation
    JOINT Chest4
    {
     OFFSET 0.000000 9.552100 0.000000
     CHANNELS 3 Yrotation Xrotation Zrotation
     JOINT Neck
     {
      OFFSET 0.000000 14.453000 0.000000
      CHANNELS 3 Yrotation Xrotation Zrotation
      JOINT Head
      {
       OFFSET 0.000000 8.936500 -0.011300
       CHANNELS 3 Yrotation Xrotation Zrotation
       End Site
       {
        OFFSET 0.000000 17.073600 -0.006000
       }
      }
     }
     JOINT RightCollar
     {
      OFFSET -2.921100 9.558500 0.000000
      CHANNELS 3 Yrotation Xrotation Zrotation
      JOINT RightShoulder
      {
       OFFSET -13.519700 0.000000 0.000000
       CHANNELS 3 Yrotation Xrotation Zrotation
       JOINT RightElbow
       {
        OFFSET 0.000000 -29.696600 0.000000
        CHANNELS 3 Yrotation Xrotation Zrotation
        JOINT RightWrist
        {
         OFFSET 0.000000 -24.004700 0.000000
         CHANNELS 3 Yrotation Xrotation Zrotation
         End Site
         {
          OFFSET 0.000000 -17.728500 0.000000
         }
        }
       }
      }
     }
     JOINT LeftCollar
     {
      OFFSET 2.921100 9.558500 0.000000
      CHANNELS 3 Yrotation Xrotation Zrotation
      JOINT LeftShoulder
      {
       OFFSET 13.519700 0.000000 0.000000
       CHANNELS 3 Yrotation Xrotation Zrotation
       JOINT LeftElbow
       {
        OFFSET 0.000000 -29.696600 0.000000
        CHANNELS 3 Yrotation Xrotation Zrotation
        JOINT LeftWrist
        {
         OFFSET 0.000000 -24.004700 0.000000
         CHANNELS 3 Yrotation Xrotation Zrotation
         End Site
         {
          OFFSET 0.000000 -17.728500 0.000000
         }
        }
       }
      }
     }
    }
   }
  }
 }
 JOINT RightHip
 {
  OFFSET -7.771700 -0.012900 -0.001300
  CHANNELS 3 Yrotation Xrotation Zrotation
  JOINT RightKnee
  {
   OFFSET 0.000000 -40.869800 0.001200
   CHANNELS 3 Yrotation Xrotation Zrotation
   JOINT RightAnkle
   {
    OFFSET 0.000000 -39.717900 0.002100
    CHANNELS 3 Yrotation Xrotation Zrotation
    JOINT RightToe
    {
     OFFSET 0.000000 -4.965400 11.033500
     CHANNELS 3 Yrotation Xrotation Zrotation
     End Site
     {
      OFFSET 0.000000 -1.423100 5.872300
     }
    }
   }
  }
 }
 JOINT LeftHip
 {
  OFFSET 7.771700 -0.012900 -0.001300
  CHANNELS 3 Yrotation Xrotation Zrotation
  JOINT LeftKnee
  {
   OFFSET 0.000000 -40.869800 0.001200
   CHANNELS 3 Yrotation Xrotation Zrotation
   JOINT LeftAnkle
   {
    OFFSET 0.000000 -39.717900 0.002100
    CHANNELS 3 Yrotation Xrotation Zrotation
    JOINT LeftToe
    {
     OFFSET 0.000000 -4.965400 11.033500
     CHANNELS 3 Yrotation Xrotation Zrotation
     End Site
     {
      OFFSET 0.000000 -1.423100 5.872300
     }
    }
   }
  }
 }
}
MOTION
Frames: 7
Frame Time: 0.008333
7.707376 52.155624 39.457136 172.564775 -38.022968 -1.930568 2.320792 21.393502 1.678951 0.272991 2.868520 0.355246 0.454284 4.671315 0.586268 2.183202 18.135015 2.582909 0.812734 16.934696 -0.591689 1.862199 -4.299413 -1.406907 -5.948088 -0.993873 -4.231515 -1.450981 1.573145 4.028256 -167.625283 -76.789551 -172.308514 4.118030 7.106796 1.910392 -4.683624 0.849078 -0.447986 2.809003 -10.234047 4.843805 -154.188463 -58.453331 141.882150 -15.712228 -29.885932 35.070088 -4.353938 -42.945695 4.397677 173.879683 85.597976 177.692088 -1.740264 -12.959538 -1.761331 0.044424 -0.233397 0.072714 0.732748 -39.583822 4.791981 67.006189 83.220090 56.514715 -5.877462 -11.919905 10.310025 0.492756 1.693651 0.260450
7.709554 52.149752 39.453581 172.583873 -38.018355 -1.939479 2.272120 21.385632 1.656662 0.286193 2.869694 0.358484 0.448777 4.669751 0.584234 2.121056 18.125497 2.564224 0.748858 16.965328 -0.620156 1.777096 -4.251864 -1.432105 -5.905862 -0.998168 -4.245672 -1.391246 1.469796 3.987736 -167.625151 -76.833341 -172.306075 4.102371 7.075491 1.944704 -4.762141 0.826533 -0.458959 2.833338 -10.736352 4.941624 -154.140549 -58.815814 141.813472 -15.553659 -29.770901 34.967367 -4.350208 -42.957572 4.404248 174.095982 85.582904 177.907474 -1.738136 -12.964977 -1.762238 0.046758 -0.235147 0.077144 0.735694 -39.589594 4.822038 66.949732 83.255895 56.429439 -5.901161 -11.919594 10.338225 0.499382 1.691168 0.269041
7.710393 52.144710 39.449218 172.610612 -38.016041 -1.944169 2.210188 21.379812 1.621459 0.269060 2.866996 0.352655 0.475395 4.674074 0.589779 2.048461 18.121171 2.536216 0.696809 16.982049 -0.643789 1.703168 -4.222185 -1.459496 -5.862044 -1.005769 -4.251206 -1.325965 1.351865 3.941939 -167.615627 -76.877879 -172.305634 4.087098 7.043774 1.970426 -4.843910 0.795351 -0.458265 2.901343 -11.229861 5.034145 -154.303165 -59.187878 141.920488 -15.390839 -29.706600 34.855940 -4.349144 -42.966275 4.406199 174.256064 85.566232 178.055941 -1.746626 -12.975057 -1.751817 0.045280 -0.235056 0.076865 0.736064 -39.592130 4.835077 66.915299 83.282635 56.365087 -5.914566 -11.917689 10.374115 0.496499 1.686496 0.265505
7.708865 52.141164 39.443447 172.637185 -38.021155 -1.934508 2.140437 21.380502 1.568654 0.250994 2.864323 0.346605 0.432138 4.667980 0.575667 1.958281 18.124662 2.491987 0.736527 16.998906 -0.664291 1.639091 -4.206737 -1.487885 -5.739509 -1.005035 -4.252704 -1.259594 1.224892 3.891050 -167.587934 -76.920649 -172.318003 4.077540 7.018501 1.996548 -4.847153 0.765189 -0.452247 3.001092 -11.718063 5.118400 -154.651269 -59.577303 142.183314 -15.217661 -29.693954 34.733809 -4.335714 -42.967468 4.384503 174.393008 85.546178 178.181139 -1.758151 -12.990259 -1.734666 0.054969 -0.233232 0.069002 0.740854 -39.585475 4.816536 66.943224 83.290221 56.363837 -5.898633 -11.915704 10.401974 0.479787 1.676908 0.241249
7.711378 52.138272 39.438842 172.668615 -38.023051 -1.954732 2.073395 21.378127 1.541301 0.243136 2.863508 0.343672 0.405206 4.664164 0.566628 1.892043 18.128079 2.460473 0.731312 17.004068 -0.684722 1.587005 -4.203626 -1.516860 -5.672035 -1.012440 -4.255796 -1.196303 1.096227 3.837039 -167.553510 -76.958936 -172.333254 4.073653 7.001234 2.028813 -4.902771 0.715494 -0.446228 3.117935 -12.201507 5.192136 -155.152418 -59.982174 142.576117 -15.039094 -29.727082 34.612788 -4.351902 -42.966012 4.404973 174.568403 85.535359 178.344508 -1.766999 -12.998103 -1.727024 0.052884 -0.234309 0.069231 0.730341 -39.582920 4.846447 66.902204 83.317019 56.302214 -5.925745 -11.916747 10.413186 0.498717 1.676756 0.251986
7.715298 52.136197 39.434889 172.700371 -38.024022 -1.986919 2.031062 21.377671 1.540078 0.213360 2.862612 0.335260 0.391872 4.663462 0.562272 1.837082 18.131475 2.437288 0.705880 17.000597 -0.705633 1.547186 -4.210237 -1.546889 -5.628287 -1.029416 -4.264450 -1.141130 0.972865 3.782589 -167.523722 -76.990679 -172.339551 4.073833 6.990224 2.068345 -4.980885 0.645562 -0.441967 3.234656 -12.682430 5.251568 -155.763039 -60.388007 143.065496 -14.856624 -29.794806 34.511893 -4.383839 -42.961291 4.447941 174.763246 85.529172 178.522209 -1.778798 -13.006038 -1.716091 0.047269 -0.233390 0.067902 0.710501 -39.582543 4.887926 66.832123 83.345972 56.226107 -5.963919 -11.918615 10.404597 0.531953 1.681245 0.278495
7.714837 52.133347 39.432619 172.761854 -38.009939 -2.016185 1.956020 21.364816 1.515865 0.208966 2.863380 0.334542 0.352868 4.662567 0.555586 1.782199 18.134937 2.417771 0.687072 16.995746 -0.725391 1.519311 -4.219250 -1.577019 -5.584192 -1.050549 -4.280010 -1.093876 0.858313 3.729817 -167.497761 -77.013941 -172.339194 4.075699 6.983822 2.112173 -5.056226 0.563866 -0.442082 3.330174 -13.164403 5.298734 -156.411955 -60.779932 143.606393 -14.674530 -29.893004 34.443596 -4.421643 -42.972956 4.449268 174.781804 85.518124 178.531029 -1.786426 -13.016997 -1.712368 0.053867 -0.231064 0.055169 0.687272 -39.594236 4.905024 66.749726 83.363337 56.119979 -6.000126 -11.918859 10.412713 0.540556 1.689064 0.302735
